<svg id="visual" viewBox="0 0 900 600" width="900" height="600" xmlns="http://www.w3.org/2000/svg" xmlns:xlink="http://www.w3.org/1999/xlink" version="1.1"><rect x="0" y="0" width="900" height="600" fill="#638198"></rect><path d="M0 409L21.5 408.8C43 408.7 86 408.3 128.8 405.8C171.7 403.3 214.3 398.7 257.2 393.5C300 388.3 343 382.7 385.8 390.2C428.7 397.7 471.3 418.3 514.2 424.8C557 431.3 600 423.7 642.8 411.7C685.7 399.7 728.3 383.3 771.2 380.2C814 377 857 387 878.5 392L900 397L900 601L878.5 601C857 601 814 601 771.2 601C728.3 601 685.7 601 642.8 601C600 601 557 601 514.2 601C471.3 601 428.7 601 385.8 601C343 601 300 601 257.2 601C214.3 601 171.7 601 128.8 601C86 601 43 601 21.5 601L0 601Z" fill="#044b35"></path><path d="M0 396L21.5 409.2C43 422.3 86 448.7 128.8 450.7C171.7 452.7 214.3 430.3 257.2 420.2C300 410 343 412 385.8 420.8C428.7 429.7 471.3 445.3 514.2 442.2C557 439 600 417 642.8 418.8C685.7 420.7 728.3 446.3 771.2 448.7C814 451 857 430 878.5 419.5L900 409L900 601L878.5 601C857 601 814 601 771.2 601C728.3 601 685.7 601 642.8 601C600 601 557 601 514.2 601C471.3 601 428.7 601 385.8 601C343 601 300 601 257.2 601C214.3 601 171.7 601 128.8 601C86 601 43 601 21.5 601L0 601Z" fill="#00583a"></path><path d="M0 472L21.5 467.8C43 463.7 86 455.3 128.8 454.7C171.7 454 214.3 461 257.2 464.5C300 468 343 468 385.8 469.8C428.7 471.7 471.3 475.3 514.2 481.3C557 487.3 600 495.7 642.8 501C685.7 506.3 728.3 508.7 771.2 504.3C814 500 857 489 878.5 483.5L900 478L900 601L878.5 601C857 601 814 601 771.2 601C728.3 601 685.7 601 642.8 601C600 601 557 601 514.2 601C471.3 601 428.7 601 385.8 601C343 601 300 601 257.2 601C214.3 601 171.7 601 128.8 601C86 601 43 601 21.5 601L0 601Z" fill="#00663d"></path><path d="M0 519L21.5 517.8C43 516.7 86 514.3 128.8 516.7C171.7 519 214.3 526 257.2 531C300 536 343 539 385.8 536.5C428.7 534 471.3 526 514.2 516.8C557 507.7 600 497.3 642.8 500.8C685.7 504.3 728.3 521.7 771.2 522.5C814 523.3 857 507.7 878.5 499.8L900 492L900 601L878.5 601C857 601 814 601 771.2 601C728.3 601 685.7 601 642.8 601C600 601 557 601 514.2 601C471.3 601 428.7 601 385.8 601C343 601 300 601 257.2 601C214.3 601 171.7 601 128.8 601C86 601 43 601 21.5 601L0 601Z" fill="#02733f"></path><path d="M0 570L21.5 563.2C43 556.3 86 542.7 128.8 539.3C171.7 536 214.3 543 257.2 546C300 549 343 548 385.8 549.5C428.7 551 471.3 555 514.2 557.7C557 560.3 600 561.7 642.8 556.2C685.7 550.7 728.3 538.3 771.2 535.3C814 532.3 857 538.7 878.5 541.8L900 545L900 601L878.5 601C857 601 814 601 771.2 601C728.3 601 685.7 601 642.8 601C600 601 557 601 514.2 601C471.3 601 428.7 601 385.8 601C343 601 300 601 257.2 601C214.3 601 171.7 601 128.8 601C86 601 43 601 21.5 601L0 601Z" fill="#0e813f"></path></svg>